<svg width="25" height="22" viewBox="0 0 25 22" fill="none" xmlns="http://www.w3.org/2000/svg">
<path fill-rule="evenodd" clip-rule="evenodd" d="M0 11C0 10.6022 0.158036 10.2206 0.43934 9.93934C0.720645 9.65804 1.10218 9.5 1.5 9.5H18.879L12.438 3.062C12.1563 2.78034 11.9981 2.39833 11.9981 2C11.9981 1.60168 12.1563 1.21966 12.438 0.938003C12.7197 0.656343 13.1017 0.498108 13.5 0.498108C13.8983 0.498108 14.2803 0.656343 14.562 0.938003L23.562 9.938C23.7017 10.0773 23.8125 10.2429 23.8881 10.4251C23.9638 10.6073 24.0027 10.8027 24.0027 11C24.0027 11.1973 23.9638 11.3927 23.8881 11.5749C23.8125 11.7571 23.7017 11.9227 23.562 12.062L14.562 21.062C14.2803 21.3437 13.8983 21.5019 13.5 21.5019C13.1017 21.5019 12.7197 21.3437 12.438 21.062C12.1563 20.7803 11.9981 20.3983 11.9981 20C11.9981 19.6017 12.1563 19.2197 12.438 18.938L18.879 12.5H1.5C1.10218 12.5 0.720645 12.342 0.43934 12.0607C0.158036 11.7794 0 11.3978 0 11Z" fill="#4F4F4F"/>
</svg>
