<svg width="60" height="60" viewBox="0 0 60 60" fill="none" xmlns="http://www.w3.org/2000/svg">
<path fill-rule="evenodd" clip-rule="evenodd" d="M30 0.666687C13.8 0.666687 0.666664 13.8 0.666664 30C0.666664 46.2 13.8 59.3334 30 59.3334C46.2 59.3334 59.3333 46.2 59.3333 30C59.3333 13.8 46.2 0.666687 30 0.666687ZM32.6667 40.6667C32.6667 41.3739 32.3857 42.0522 31.8856 42.5523C31.3855 43.0524 30.7072 43.3334 30 43.3334C29.2928 43.3334 28.6145 43.0524 28.1144 42.5523C27.6143 42.0522 27.3333 41.3739 27.3333 40.6667V32.6667H19.3333C18.6261 32.6667 17.9478 32.3857 17.4477 31.8856C16.9476 31.3855 16.6667 30.7073 16.6667 30C16.6667 29.2928 16.9476 28.6145 17.4477 28.1144C17.9478 27.6143 18.6261 27.3334 19.3333 27.3334H27.3333V19.3334C27.3333 18.6261 27.6143 17.9478 28.1144 17.4477C28.6145 16.9476 29.2928 16.6667 30 16.6667C30.7072 16.6667 31.3855 16.9476 31.8856 17.4477C32.3857 17.9478 32.6667 18.6261 32.6667 19.3334V27.3334H40.6667C41.3739 27.3334 42.0522 27.6143 42.5523 28.1144C43.0524 28.6145 43.3333 29.2928 43.3333 30C43.3333 30.7073 43.0524 31.3855 42.5523 31.8856C42.0522 32.3857 41.3739 32.6667 40.6667 32.6667H32.6667V40.6667Z" fill="url(#paint0_linear_1_95)"/>
<defs>
<linearGradient id="paint0_linear_1_95" x1="0.666664" y1="30" x2="59.3333" y2="30" gradientUnits="userSpaceOnUse">
<stop stop-color="#2AF598"/>
<stop offset="1" stop-color="#009EFD"/>
</linearGradient>
</defs>
</svg>
